<mxfile host="Electron" agent="Mozilla/5.0 (X11; Linux x86_64) AppleWebKit/537.36 (KHTML, like Gecko) draw.io/26.2.2 Chrome/134.0.6998.178 Electron/35.1.2 Safari/537.36" version="26.2.2">
  <diagram name="Seite-1" id="eH1NpMW3lWLtIKehV0QL">
    <mxGraphModel dx="1875" dy="1610" grid="1" gridSize="10" guides="1" tooltips="1" connect="1" arrows="1" fold="1" page="1" pageScale="1" pageWidth="1169" pageHeight="1654" math="0" shadow="0">
      <root>
        <mxCell id="0" />
        <mxCell id="1" parent="0" />
        <mxCell id="iFVBtef5VtWtQ202p0eM-1" value="" style="rounded=1;whiteSpace=wrap;html=1;strokeWidth=56.692913386;fillColor=none;" vertex="1" parent="1">
          <mxGeometry x="170" y="170" width="820" height="1220" as="geometry" />
        </mxCell>
        <mxCell id="iFVBtef5VtWtQ202p0eM-7" value="" style="rounded=0;whiteSpace=wrap;html=1;fillColor=#7F7F7F;strokeWidth=0;" vertex="1" parent="1">
          <mxGeometry x="141.5" y="750" width="57" height="60" as="geometry" />
        </mxCell>
        <mxCell id="iFVBtef5VtWtQ202p0eM-8" value="" style="rounded=0;whiteSpace=wrap;html=1;fillColor=#7F7F7F;strokeWidth=0;" vertex="1" parent="1">
          <mxGeometry x="961.5" y="760" width="57" height="60" as="geometry" />
        </mxCell>
        <mxCell id="iFVBtef5VtWtQ202p0eM-9" value="" style="rounded=0;whiteSpace=wrap;html=1;fillColor=#7F7F7F;strokeWidth=0;" vertex="1" parent="1">
          <mxGeometry x="961.5" y="880" width="57" height="60" as="geometry" />
        </mxCell>
      </root>
    </mxGraphModel>
  </diagram>
</mxfile>
